<?xml version="1.0" encoding="utf-8"?>
<!-- Generator: Adobe Illustrator 27.8.0, SVG Export Plug-In . SVG Version: 6.00 Build 0)  -->
<svg version="1.1" id="Ebene_1" xmlns="http://www.w3.org/2000/svg" xmlns:xlink="http://www.w3.org/1999/xlink" x="0px" y="0px"
	 viewBox="0 0 922 854" style="enable-background:new 0 0 922 854;" xml:space="preserve">
<style type="text/css">
	.st0{fill:none;}
	.st1{fill:none;stroke:#879196;stroke-dasharray:3,3;}
	.st2{fill:#879196;}
	.st3{font-family:'LucidaSans';}
	.st4{font-size:12px;}
	.st5{fill:#E7157B;}
	.st6{fill:none;stroke:#858B94;stroke-miterlimit:10;}
	.st7{fill:#858B94;}
	.st8{fill:#7AA116;}
	.st9{fill:#FFFFFF;}
	.st10{fill:#00BEF2;}
	.st11{fill:none;stroke:#D86613;stroke-miterlimit:10;}
	.st12{fill:#D86613;}
	.st13{fill:#C925D1;}
	.st14{enable-background:new    ;}
	.st15{fill:#182A47;}
	.st16{fill:#00188D;}
	.st17{fill:none;stroke:#FF9900;}
	.st18{fill:#FF9900;}
	.st19{fill:#ED7100;}
	.st20{font-size:11px;}
	.st21{fill:none;stroke:#000000;stroke-miterlimit:10;}
	.st22{stroke:#000000;stroke-miterlimit:10;}
	.st23{fill:#8C4FFF;}
	.st24{fill:none;stroke:#182A47;stroke-miterlimit:10;}
	.st25{fill:#182A47;stroke:#182A47;stroke-miterlimit:10;}
	.st26{fill:#DD344C;}
	.st27{fill:none;stroke:#CD2264;stroke-miterlimit:10;}
	.st28{fill:#CD2264;}
	.st29{fill:none;stroke:#182A47;stroke-miterlimit:10;stroke-dasharray:3,3;}
	.st30{fill:none;stroke:#182A47;stroke-linecap:round;stroke-miterlimit:10;}
</style>
<path class="st0" d="z"/>
<g>
	<rect x="380.5" y="22.3" pointer-events="all" class="st1" width="160" height="130"/>
	<g transform="translate(-0.5 -0.5)">
		<text transform="matrix(1 0 0 1 385.3835 44.4998)" class="st2 st3 st4">User Data &amp; Configuration</text>
	</g>
	<rect x="400.5" y="61" pointer-events="all" class="st0" width="43.5" height="53"/>
	<path pointer-events="all" class="st5" d="M417.5,95.9h17.9v-2.4h-17.9V95.9z M417.5,88.5h22.1v-2.4h-22.1V88.5z M417.5,81.1h9.5
		v-2.4h-9.5V81.1z M402.9,103h0.9v2.4h-2.1c-0.7,0-1.2-0.5-1.2-1.2V62c0-0.7,0.5-1.2,1.2-1.2h20v2.4h-18.8V103z M409.2,107.2h1.9
		v2.4H408c-0.7,0-1.2-0.5-1.2-1.2V66.2c0-0.7,0.5-1.2,1.2-1.2h19v2.4h-17.8V107.2z M415.5,111.4V71.7H431V81c0,0.7,0.5,1.2,1.2,1.2
		h9.3v29.2H415.5z M433.5,73.4l6.4,6.4h-6.4V73.4z M443.6,80.1l-10.5-10.5c-0.2-0.2-0.5-0.3-0.9-0.3h-17.9c-0.7,0-1.2,0.5-1.2,1.2
		v42.1c0,0.7,0.5,1.2,1.2,1.2h28.5c0.7,0,1.2-0.5,1.2-1.2V81C444,80.7,443.9,80.4,443.6,80.1z"/>
	<rect x="60.5" y="21" pointer-events="all" class="st1" width="280" height="130"/>
	<g transform="translate(-0.5 -0.5)">
		<text transform="matrix(1 0 0 1 167.1484 44.5)" class="st2 st3 st4">Source Data</text>
	</g>
	<rect x="91.2" y="61" pointer-events="all" class="st0" width="43.5" height="53"/>
	<path pointer-events="all" class="st5" d="M108.2,95.9h17.9v-2.4h-17.9V95.9z M108.2,88.5h22.1v-2.4h-22.1V88.5z M108.2,81.1h9.5
		v-2.4h-9.5V81.1z M93.6,103h0.9v2.4h-2.1c-0.7,0-1.2-0.5-1.2-1.2V62c0-0.7,0.5-1.2,1.2-1.2h20v2.4H93.6V103z M99.9,107.2h1.9v2.4
		h-3.2c-0.7,0-1.2-0.5-1.2-1.2V66.2c0-0.7,0.5-1.2,1.2-1.2h19v2.4H99.9V107.2z M106.3,111.4V71.7h15.5V81c0,0.7,0.5,1.2,1.2,1.2h9.3
		v29.2H106.3z M124.2,73.4l6.4,6.4h-6.4V73.4z M134.4,80.1l-10.5-10.5c-0.2-0.2-0.5-0.3-0.8-0.3h-17.9c-0.7,0-1.2,0.5-1.2,1.2v42.1
		c0,0.7,0.5,1.2,1.2,1.2h28.4c0.7,0,1.2-0.5,1.2-1.2V81C134.7,80.7,134.6,80.4,134.4,80.1z"/>
	<path pointer-events="all" class="st6" d="M20.5,193.5h880v640h-880V193.5z"/>
	<path pointer-events="all" class="st7" d="M31.2,200.4c-2.5,0-4.7,2.4-4.4,4.9c-1.7,0.5-2.7,2.2-2.4,3.9c0.2,1.7,1.9,3,3.6,2.8
		c3.8,0,7.5,0,11.2,0c1.9-0.2,3.3-2.3,2.8-4.1c-0.2-1.3-1.4-2.5-2.7-2.6c0-1.5-1.6-3-3.1-2.2c-0.8,0.8-1-1.2-1.8-1.5
		C33.6,200.8,32.5,200.3,31.2,200.4z M31.2,201.1c1.9-0.1,3.6,1.4,4.2,3.2c0.4,0.4,0.8-0.3,1.1-0.4c1.3-0.8,2.2,0.8,2.3,1.9
		c0.4,0.5,1.2,0.1,1.5,0.6c1.4,1,1.5,3.4,0.1,4.5c-1,0.7-2.2,0.4-3.4,0.5c-3.2,0-6.4,0-9.7,0c-1.6-0.2-2.6-2.1-2-3.7
		c0.3-1,1.3-1.5,2.1-1.8c0.2-0.7-0.1-1.6,0.4-2.4C28.4,202.2,29.8,201.1,31.2,201.1z M20.5,218.5c0-8.3,0-16.7,0-25
		c8.3,0,16.7,0,25,0c0,8.3,0,16.7,0,25C37.2,218.5,28.8,218.5,20.5,218.5z"/>
	<g transform="translate(-0.5 -0.5)">
		<text transform="matrix(1 0 0 1 52.5 212.5)" class="st7 st3 st4">AWS Cloud</text>
	</g>
	<path pointer-events="all" class="st8" d="M220.5,233.5h80v80h-80V233.5z"/>
	<path pointer-events="all" class="st9" d="M284.4,276.8l0.4-3.1c4,2.4,4.1,3.4,4.1,3.5C288.9,277.2,288.2,277.8,284.4,276.8z
		 M282.2,276.2c-7-2.1-16.7-6.6-20.7-8.5c0,0,0,0,0,0c0-1.5-1.2-2.7-2.8-2.7c-1.5,0-2.7,1.2-2.7,2.7c0,1.5,1.2,2.8,2.7,2.8
		c0.7,0,1.3-0.2,1.7-0.6c4.6,2.2,14.3,6.6,21.3,8.7l-2.8,19.7c0,0,0,0.1,0,0.2c0,1.7-7.7,4.9-20.2,4.9c-12.7,0-20.4-3.2-20.4-4.9
		c0,0,0-0.1,0-0.1l-5.8-42.5c5,3.5,15.9,5.3,26.2,5.3c10.4,0,21.2-1.8,26.2-5.3L282.2,276.2z M232,251.2c0.1-1.5,8.7-7.4,26.9-7.4
		s26.8,5.9,26.9,7.4v0.5c-1,3.4-12.2,6.9-26.9,6.9c-14.7,0-25.9-3.6-26.9-7V251.2z M288,251.2c0-4-11.3-9.7-29.1-9.7
		s-29.1,5.8-29.1,9.7l0.1,0.9l6.3,46.3c0.1,5.2,14,7.1,22.7,7.1c10.8,0,22.3-2.5,22.5-7.1l2.7-19.3c1.5,0.4,2.8,0.6,3.8,0.6
		c1.4,0,2.3-0.3,2.8-1c0.5-0.5,0.6-1.2,0.5-1.9c-0.3-1.6-2.2-3.3-6-5.5l2.7-19.2L288,251.2z"/>
	<path pointer-events="all" class="st10" d="M284.4,63c1.1-0.8,2.5-0.8,3.6,0l22.4,22.5c0.8,1.1,0.8,2.5,0,3.5l-22,22.2
		c-0.6,0.6-1.4,0.9-2.2,0.9c-0.8,0-1.6-0.3-2.2-0.9L262,89c-0.8-1-0.8-2.5,0-3.5l15.3-15.3l5.5,5.5c-0.7,2,0.3,4.2,2.2,5v13.7
		c-1.6,0.7-2.5,2.5-2.1,4.2c0.4,1.7,1.9,3,3.7,3c1.8,0,3.3-1.2,3.7-3c0.4-1.7-0.5-3.5-2.1-4.2V81l5.1,5.2c-0.6,1.7-0.1,3.5,1.4,4.5
		c1.5,1,3.4,0.8,4.7-0.5c1.3-1.2,1.5-3.2,0.5-4.7c-0.9-1.5-2.8-2.1-4.5-1.5l-5.5-5.5c0.5-1.4,0.2-3-0.9-4c-1-1-2.6-1.4-4-0.8
		l-5.6-5.6L284.4,63z"/>
	<path pointer-events="none" class="st11" d="M580.5,393.5h280v400h-280V393.5z"/>
	<path pointer-events="all" class="st12" d="M580.5,393.5h25v25h-25V393.5z M601.6,401.9v-0.7h-1.7v-2.1h-2.1v-1.7H597v1.7h-1.5
		v-1.7h-0.7v1.7h-1.5v-1.7h-0.7v1.7H591v-1.7h-0.7v1.7h-1.5v-1.7h-0.7v1.7h-2v2.1h-1.7v0.7h1.7v1.5h-1.7v0.7h1.7v1.5h-1.7v0.7h1.7
		v1.5h-1.7v0.7h1.7v1.5h-1.7v0.7h1.7v2.1h2v1.7h0.7v-1.7h1.5v1.7h0.7v-1.7h1.5v1.7h0.7v-1.7h1.5v1.7h0.7v-1.7h1.5v1.7h0.7v-1.7h2.2
		v-2.1h1.7v-0.7h-1.7v-1.5h1.7v-0.7h-1.7v-1.5h1.7v-0.7h-1.7v-1.5h1.7v-0.7h-1.7v-1.5H601.6z M599.2,412.2h-12.4v-12.4h12.4V412.2z"
		/>
	<g>
		<path pointer-events="all" class="st13" d="M620.5,433.5h80v80h-80V433.5z"/>
		<path pointer-events="all" class="st9" d="M689,493.9c-0.6,0-1.2-0.5-1.2-1.2c0-0.6,0.5-1.2,1.2-1.2s1.2,0.5,1.2,1.2
			C690.2,493.3,689.7,493.9,689,493.9z M678,503.2c-1.6,0-2.9-1.3-2.9-2.9c0-1.6,1.3-2.9,2.9-2.9c1.6,0,2.9,1.3,2.9,2.9
			C680.9,501.9,679.6,503.2,678,503.2z M672.7,482.8c0-2.2,1.8-4.1,4.1-4.1c2.2,0,4.1,1.8,4.1,4.1c0,2.2-1.8,4.1-4.1,4.1
			C674.5,486.9,672.7,485.1,672.7,482.8z M665.7,472.9c-0.6,0-1.2-0.5-1.2-1.2c0-0.6,0.5-1.2,1.2-1.2c0.6,0,1.2,0.5,1.2,1.2
			C666.9,472.4,666.4,472.9,665.7,472.9z M662.2,489.2c-1.3,0-2.3-1-2.3-2.3c0-1.3,1-2.3,2.3-2.3c1.3,0,2.3,1.1,2.3,2.3
			C664.6,488.2,663.5,489.2,662.2,489.2z M686.7,464.8c1.3,0,2.3,1.1,2.3,2.3s-1,2.3-2.3,2.3c-1.3,0-2.3-1-2.3-2.3
			S685.4,464.8,686.7,464.8z M689,489.2c-1.9,0-3.5,1.6-3.5,3.5c0,0.5,0.1,1,0.3,1.4l-4.1,2.6c-0.8-0.8-1.8-1.4-2.9-1.6l-0.3-6.2
			c2.7-0.8,4.6-3.2,4.6-6.1c0-1.7-0.7-3.3-1.8-4.4l4.1-6.8c0.4,0.1,0.8,0.2,1.2,0.2c2.6,0,4.7-2.1,4.7-4.6s-2.1-4.6-4.7-4.6
			s-4.6,2.1-4.6,4.6c0,1.3,0.5,2.5,1.4,3.3l-3.9,6.6c-0.8-0.4-1.7-0.6-2.7-0.6c-1.3,0-2.6,0.4-3.6,1.1l-4.3-4.4
			c0.2-0.4,0.3-0.9,0.3-1.4c0-1.9-1.6-3.5-3.5-3.5c-1.9,0-3.5,1.6-3.5,3.5c0,1.9,1.6,3.5,3.5,3.5c0.6,0,1.1-0.1,1.6-0.4l4.2,4.3
			c-0.7,1-1.1,2.3-1.1,3.6c0,0.2,0,0.5,0,0.7l-4.3,0.9c-0.8-1.3-2.3-2.2-3.9-2.2c-2.6,0-4.7,2.1-4.7,4.6s2.1,4.7,4.7,4.7
			c2.6,0,4.7-2.1,4.7-4.7c0-0.1,0-0.2,0-0.2l4.2-0.9c1,1.9,2.9,3.2,5.1,3.4l0.3,6.1c-2.2,0.6-3.8,2.6-3.8,5c0,2.9,2.4,5.2,5.2,5.2
			c2.9,0,5.2-2.4,5.2-5.2c0-0.5-0.1-1.1-0.3-1.6l4.6-2.9c0.4,0.2,0.9,0.3,1.5,0.3c1.9,0,3.5-1.6,3.5-3.5
			C692.5,490.8,690.9,489.2,689,489.2z M650,443.8c11.3,0,19.2,3.7,19.2,7s-7.9,7-19.2,7c-11.3,0-19.2-3.7-19.2-7
			S638.7,443.8,650,443.8z M669.2,496.2c0,3.2-7.9,6.8-19.2,6.8c-11.3,0-19.2-3.6-19.2-6.8v-9.6c3.4,2.9,10.4,4.9,18.8,4.9
			c2,0,4-0.1,6-0.3l-0.3-2.3c-1.9,0.2-3.8,0.3-5.7,0.3c-11.2,0-18.8-3.5-18.8-6.8v-11.4c3.4,2.9,10.4,4.9,18.8,4.9
			c4,0,8-0.5,11.3-1.3l-0.6-2.3c-3.2,0.8-6.9,1.2-10.8,1.2c-11.2,0-18.8-3.5-18.8-6.8v-11.5c3.5,3,10.6,5,19.2,5
			c8.6,0,15.7-2,19.2-5v13.1h2.3v-17.5c0-5.3-9.2-9.3-21.5-9.3c-12.3,0-21.5,4-21.5,9.3v45.4c0,5.2,9.2,9.1,21.5,9.1
			c12.3,0,21.5-3.9,21.5-9.1v-5.8h-2.3V496.2z"/>
	</g>
	<g>
		<path pointer-events="all" class="st13" d="M175,61.1h52.5v52.5H175V61.1z"/>
		<path pointer-events="all" class="st9" d="M201.2,87.3c-7.5,0-12.8-2.4-12.8-4.5v-7.7c2.3,2,7,3.2,12.8,3.2
			c5.7,0,10.5-1.3,12.8-3.2v7.7C214,84.9,208.7,87.3,201.2,87.3 M201.2,97.6c-7.5,0-12.8-2.4-12.8-4.5v-7.6c2.3,2,7,3.2,12.8,3.2
			c5.7,0,10.5-1.3,12.8-3.2v7.6C214,95.2,208.7,97.6,201.2,97.6 M201.2,106.8c-7.5,0-12.8-2.4-12.8-4.5v-6.4c2.3,2,7,3.2,12.8,3.2
			c5.7,0,10.5-1.3,12.8-3.2v6.4C214,104.4,208.7,106.8,201.2,106.8 M201.2,67.8c7.5,0,12.8,2.4,12.8,4.5c0,2.1-5.2,4.5-12.8,4.5
			c-7.5,0-12.8-2.4-12.8-4.5C188.5,70.2,193.7,67.8,201.2,67.8 M201.2,66.3c-8.1,0-14.2,2.6-14.2,6v30c0,3.4,6.1,6,14.2,6
			c8.1,0,14.2-2.6,14.2-6v-30C215.5,68.9,209.3,66.3,201.2,66.3"/>
	</g>
	<path pointer-events="all" class="st8" d="M421.5,233.5h80v80h-80V233.5z"/>
	<path pointer-events="all" class="st9" d="M485.4,276.8l0.4-3.1c4,2.4,4.1,3.4,4.1,3.5C489.9,277.2,489.2,277.8,485.4,276.8z
		 M483.2,276.2c-7-2.1-16.7-6.6-20.7-8.5c0,0,0,0,0,0c0-1.5-1.2-2.7-2.8-2.7c-1.5,0-2.8,1.2-2.8,2.7c0,1.5,1.2,2.8,2.8,2.8
		c0.7,0,1.3-0.2,1.7-0.6c4.6,2.2,14.3,6.6,21.3,8.7l-2.8,19.7c0,0,0,0.1,0,0.2c0,1.7-7.7,4.9-20.2,4.9c-12.7,0-20.4-3.2-20.4-4.9
		c0,0,0-0.1,0-0.1l-5.8-42.5c5,3.5,15.9,5.3,26.2,5.3c10.4,0,21.2-1.8,26.2-5.3L483.2,276.2z M433,251.2c0.1-1.5,8.7-7.4,26.9-7.4
		s26.8,5.9,26.9,7.4v0.5c-1,3.4-12.2,6.9-26.9,6.9c-14.7,0-25.9-3.6-26.9-7V251.2z M489,251.2c0-4-11.3-9.7-29.1-9.7
		s-29.1,5.8-29.1,9.7l0.1,0.9l6.3,46.3c0.1,5.2,14,7.1,22.7,7.1c10.8,0,22.3-2.5,22.5-7.1l2.7-19.3c1.5,0.4,2.8,0.6,3.8,0.6
		c1.4,0,2.3-0.3,2.8-1c0.5-0.5,0.6-1.2,0.5-1.9c-0.3-1.6-2.2-3.3-6-5.5l2.7-19.2L489,251.2z"/>
	<path pointer-events="all" class="st8" d="M620.5,233.5h80v80h-80V233.5z"/>
	<path pointer-events="all" class="st9" d="M684.4,276.8l0.4-3.1c4,2.4,4.1,3.4,4.1,3.5C688.9,277.2,688.2,277.8,684.4,276.8z
		 M682.2,276.2c-7-2.1-16.7-6.6-20.7-8.5c0,0,0,0,0,0c0-1.5-1.2-2.7-2.8-2.7s-2.8,1.2-2.8,2.7c0,1.5,1.2,2.8,2.8,2.8
		c0.7,0,1.3-0.2,1.7-0.6c4.6,2.2,14.3,6.6,21.4,8.7l-2.8,19.7c0,0,0,0.1,0,0.2c0,1.7-7.7,4.9-20.2,4.9c-12.7,0-20.4-3.2-20.4-4.9
		c0,0,0-0.1,0-0.1l-5.8-42.5c5,3.5,15.9,5.3,26.2,5.3c10.4,0,21.2-1.8,26.2-5.3L682.2,276.2z M632,251.2c0.1-1.5,8.7-7.4,26.9-7.4
		s26.8,5.9,26.9,7.4v0.5c-1,3.4-12.2,6.9-26.9,6.9c-14.7,0-25.9-3.6-26.9-7V251.2z M688,251.2c0-4-11.3-9.7-29.1-9.7
		c-17.8,0-29.1,5.8-29.1,9.7l0.1,0.9l6.3,46.3c0.2,5.2,14,7.1,22.7,7.1c10.8,0,22.3-2.5,22.5-7.1l2.7-19.3c1.5,0.4,2.8,0.6,3.8,0.6
		c1.3,0,2.3-0.3,2.8-1c0.5-0.5,0.6-1.2,0.5-1.9c-0.3-1.6-2.2-3.3-6-5.5l2.7-19.2L688,251.2z"/>
	<g>
		<path pointer-events="all" class="st5" d="M220.5,433.5h80v80h-80V433.5z"/>
		<path pointer-events="all" class="st9" d="M278.8,488.4h-36.6v-4.6h10.3c0.6,0,1.1-0.5,1.1-1.1v-6.9c0-0.6-0.5-1.1-1.1-1.1h-10.3
			v-2.3h10.3c0.6,0,1.1-0.5,1.1-1.1v-6.9c0-0.6-0.5-1.1-1.1-1.1h-10.3v-3.4h36.6v4.6h2.3v-5.7c0-0.6-0.5-1.1-1.1-1.1h-18.3V454
			c2.9-0.5,5.1-3.1,5.1-6.2c0-3.5-2.8-6.3-6.3-6.3s-6.3,2.8-6.3,6.3c0,3.1,2.2,5.6,5.1,6.2v3.5h-18.3c-0.6,0-1.1,0.5-1.1,1.1v4.6
			h-10.3c-0.6,0-1.1,0.5-1.1,1.1v6.9c0,0.6,0.5,1.1,1.1,1.1h10.3v2.3h-10.3c-0.6,0-1.1,0.5-1.1,1.1v6.9c0,0.6,0.5,1.1,1.1,1.1h10.3
			v5.7c0,0.6,0.5,1.1,1.1,1.1h18.3v2.4c-2.9,0.5-5.1,3.1-5.1,6.2c0,3.5,2.8,6.3,6.3,6.3s6.3-2.8,6.3-6.3c0-3.1-2.2-5.6-5.1-6.2v-2.4
			h18.3c0.6,0,1.1-0.5,1.1-1.1v-5.7h-2.3V488.4z M256.5,447.8c0-2.2,1.8-4,4-4s4,1.8,4,4c0,2.2-1.8,4-4,4S256.5,450,256.5,447.8z
			 M230.8,470.1v-4.6h20.6v4.6H230.8z M230.8,481.5v-4.6h20.6v4.6H230.8z M264.5,499.2c0,2.2-1.8,4-4,4s-4-1.8-4-4c0-2.2,1.8-4,4-4
			S264.5,497,264.5,499.2z M291.4,467.8h-26.3c-0.6,0-1.1,0.5-1.1,1.1v10.3c0,0.6,0.5,1.1,1.1,1.1h26.3c0.6,0,1.1-0.5,1.1-1.1v-10.3
			C292.5,468.3,292,467.8,291.4,467.8z M266.2,478.1v-8h24v8H266.2z"/>
	</g>
	<g>
		<path pointer-events="all" class="st5" d="M220.5,554.8h80v80h-80V554.8z"/>
		<path pointer-events="all" class="st9" d="M258.2,607.4h19.4v-2.3h-19.4V607.4z M241.4,587.3l11.5,11.5l-11.5,11.5l1.6,1.6
			l13.1-13.1l-13.1-13.1L241.4,587.3z M234.2,570.8h2.3v-2.3h-2.3V570.8z M238.8,570.8h2.3v-2.3h-2.3V570.8z M243.4,570.8h2.3v-2.3
			h-2.3V570.8z M230.8,573.1v-6.9h59.4v6.9H230.8z M228.5,564v61.7h38.9v-2.3h-36.6v-48h59.4v48h-8v2.3h10.3V564H228.5z"/>
	</g>
	<rect x="210.5" y="512.5" pointer-events="all" class="st0" width="100" height="30"/>
	<rect x="220.5" y="631.5" pointer-events="all" class="st0" width="80" height="30"/>
	<g transform="translate(-0.5 -0.5)">
		<text transform="matrix(1 0 0 1 228.7148 648.6649)" class="st14"><tspan x="0" y="0" class="st15 st3 st4">Scripts and</tspan><tspan x="-1" y="14.4" class="st15 st3 st4">automation</tspan></text>
	</g>
	<rect x="740.5" y="634.8" pointer-events="all" class="st0" width="80" height="30"/>
	<g transform="translate(-0.5 -0.5)">
		<text transform="matrix(1 0 0 1 748.0833 650.3394)" class="st14"><tspan x="0" y="0" class="st15 st3 st4">EBS Storage</tspan><tspan x="11.8" y="14.4" class="st15 st3 st4">Volume</tspan></text>
	</g>
	<rect x="620.5" y="513.5" pointer-events="all" class="st0" width="80" height="30"/>
	<g transform="translate(-0.5 -0.5)">
		<text transform="matrix(1 0 0 1 633.5518 528.9998)" class="st14"><tspan x="0" y="0" class="st15 st3 st4">GraphDB </tspan><tspan x="0.6" y="14.4" class="st15 st3 st4">Database</tspan></text>
	</g>
	<rect x="473.4" y="64.8" pointer-events="all" class="st0" width="39.9" height="42.5"/>
	<path pointer-events="all" class="st16" d="M478,71.3c0.1-3,2.5-5.4,5.4-5.4h26.3l8.2,8.5v28.8c-0.1,2.7-2,4.8-4.6,5.2h-30.3
		c-2.7-0.2-4.9-2.4-5-5.2V71.3z M481.4,103.2c0.1,0.9,0.7,1.7,1.5,2h29.8c1-0.3,1.8-1.2,1.9-2.2l0-26.5h-6.7v-7h-24.6
		c-1,0.2-1.7,0.9-2,1.9V103.2z M491.6,94.5l-7.5-5v-1.9l7.5-5.2V85l-5.5,3.4l5.5,3.2V94.5z M493.4,98l5.7-19.8h2.3L495.6,98H493.4z
		 M503.3,85v-2.8l7.5,5.1v1.9l-7.5,5v-2.7l5.5-3.2L503.3,85z"/>
	<g transform="translate(-0.5 -0.5)">
		<text transform="matrix(1 0 0 1 468.8203 132.5)" class="st15 st3 st4">Mappings</text>
	</g>
	<rect x="220.5" y="313.5" pointer-events="all" class="st0" width="80" height="30"/>
	<g transform="translate(-0.5 -0.5)">
		<text transform="matrix(1 0 0 1 224.8896 329.6668)" class="st15 st3 st4">Source Data</text>
	</g>
	<rect x="421.5" y="313.5" pointer-events="all" class="st0" width="80" height="20"/>
	<rect x="620.5" y="313.5" pointer-events="all" class="st0" width="80" height="30"/>
	<g>
		<path pointer-events="all" class="st8" d="M740.5,554.8h80v80h-80V554.8z"/>
		<path pointer-events="all" class="st9" d="M810.2,615.4h2.3v11.4h-11.4v-2.3h7.5l-9.5-9.5l1.6-1.6l9.5,9.5V615.4z M761.9,615.1
			l-9.5,9.5h7.5v2.3h-11.4v-11.4h2.3v7.5l9.5-9.5L761.9,615.1z M812.5,562.8v11.4h-2.3v-7.5l-9.5,9.5l-1.6-1.6l9.5-9.5h-7.5v-2.3
			H812.5z M752.4,565.1l9.5,9.5l-1.6,1.6l-9.5-9.5v7.5h-2.3v-11.4h11.4v2.3H752.4z M792.7,610.5c-1.3,1.4-5.8,2.7-12.7,2.7
			c-8.5,0-13.2-2.1-13.2-3.5v-26.5c3,1.8,8.4,2.5,13.2,2.5c4.8,0,10.1-0.7,13.1-2.4v26.5C793.1,609.8,793.1,610.1,792.7,610.5z
			 M780,576.6c7,0,11.4,1.4,12.7,2.7c0.4,0.4,0.4,0.6,0.4,0.7v0c0,1.4-4.7,3.4-13.1,3.4c-8.2,0-13.2-2-13.2-3.4
			C766.9,578.6,771.5,576.6,780,576.6z M795.4,580c0-0.6-0.2-1.5-1-2.3c-2.1-2.1-7.4-3.4-14.3-3.4c-7.1,0-15.4,1.5-15.5,5.7v29.8
			c0.1,4.2,8.4,5.7,15.5,5.7c5.3,0,11.9-0.9,14.3-3.4c0.9-0.9,1-1.8,1-2.3V580L795.4,580L795.4,580z"/>
	</g>
	<g>
		<path pointer-events="all" class="st5" d="M620.5,675.5h80v80h-80V675.5z"/>
		<path pointer-events="all" class="st9" d="M658.2,728.1h19.4v-2.3h-19.4V728.1z M641.4,708l11.5,11.5L641.4,731l1.6,1.6l13.1-13.1
			l-13.1-13.1L641.4,708z M634.2,691.5h2.3v-2.3h-2.3V691.5z M638.8,691.5h2.3v-2.3h-2.3V691.5z M643.4,691.5h2.3v-2.3h-2.3V691.5z
			 M630.8,693.8v-6.9h59.4v6.9H630.8z M628.5,684.6v61.7h38.9v-2.3h-36.6v-48h59.4v48h-8v2.3h10.3v-61.7H628.5z"/>
	</g>
	<rect x="620.5" y="755.5" pointer-events="all" class="st0" width="80" height="30"/>
	<g transform="translate(-0.5 -0.5)">
		<text transform="matrix(1 0 0 1 626.8164 768.9998)" class="st14"><tspan x="0" y="0" class="st15 st3 st4">Scripts and </tspan><tspan x="1.7" y="14.4" class="st15 st3 st4">SSH Access</tspan></text>
	</g>
	<rect x="380.5" y="391.5" pointer-events="all" class="st17" width="160" height="400"/>
	<g transform="translate(-0.5 -0.5)">
		<text transform="matrix(1 0 0 1 416.1533 412.8334)" class="st18 st3 st4">RDF Conversion</text>
	</g>
	<g>
		<path pointer-events="all" class="st19" d="M420.5,554.8h80v80h-80V554.8z"/>
		<path pointer-events="all" class="st9" d="M460.8,615.9c1.4,0,2.6,1.1,2.6,2.5c0,1.4-1.1,2.5-2.6,2.5c-1.4,0-2.6-1.1-2.6-2.5
			C458.2,617,459.3,615.9,460.8,615.9 M439.1,595.3c0,1.4-1.1,2.5-2.6,2.5c-1.4,0-2.6-1.1-2.6-2.5c0-1.4,1.1-2.5,2.6-2.5
			C438,592.7,439.1,593.9,439.1,595.3 M484.9,624c-2.9,0-5.3-2.2-5.3-5c0-2.9,2.4-5.2,5.3-5.2s5.3,2.3,5.3,5.2
			C490.2,621.8,487.9,624,484.9,624 M479.7,595.4c0-2.9,2.4-5.2,5.3-5.2s5.3,2.3,5.3,5.2s-2.4,5.2-5.3,5.2S479.7,598.3,479.7,595.4
			 M460.8,600.6c-2.9,0-5.3-2.3-5.3-5.2s2.4-5.2,5.3-5.2c2.9,0,5.3,2.3,5.3,5.2S463.7,600.6,460.8,600.6 M466.5,618.3
			c0,3.3-2.5,5.7-5.8,5.7c-3.3,0-5.8-2.5-5.8-5.7s2.5-5.7,5.8-5.7C464,612.6,466.5,615,466.5,618.3 M453.9,572.6
			c0-3.6,3.3-6.9,6.9-6.9s6.9,3.3,6.9,6.9c0,3.6-3.3,6.9-6.9,6.9S453.9,576.1,453.9,572.6 M436.6,601.1c-3.3,0-5.8-2.5-5.8-5.7
			c0-3.3,2.6-6,5.8-6c3.2,0,5.8,2.7,5.8,6C442.3,598.7,439.9,601.1,436.6,601.1 M441.8,618.9c0,2.8-2.3,5.1-5.3,5.1
			c-2.9,0-5.3-2.2-5.3-5.1c0-2.9,2.4-5.2,5.3-5.2C439.5,613.7,441.8,616,441.8,618.9 M486.1,611.5v-8.7c3.6-0.5,6.4-3.7,6.4-7.4
			c0-4.1-3.4-7.5-7.6-7.5c-3.8,0-6.9,2.8-7.5,6.4h-9.2c-0.5-3.2-3.1-5.8-6.3-6.3v-6.4c4.4-0.6,8.1-4.6,8.1-9.1
			c0-4.9-4.3-9.1-9.2-9.1s-9.2,4.3-9.2,9.1c0,4.5,3.6,8.5,8.1,9.1v6.4c-3.2,0.5-5.8,3.1-6.3,6.3h-8.8c-0.5-4-3.9-7.1-8-7.1
			c-4.4,0-8.1,3.7-8.1,8.3c0,4.1,3,7.4,6.9,7.9v8.2c-3.6,0.6-6.4,3.7-6.4,7.4c0,4.1,3.3,7.4,7.6,7.4c4.2,0,7.6-3.2,7.6-7.4
			c0-3.7-2.8-6.8-6.4-7.4v-8.2c3.6-0.5,6.3-3.2,6.8-6.8h8.8c0.5,3.2,3.1,5.8,6.3,6.3v7.5c-4,0.5-6.9,3.8-6.9,7.9c0,4.5,3.5,8,8.1,8
			c4.5,0,8.1-3.5,8.1-8c0-4.1-3-7.4-6.9-7.9v-7.5c3.2-0.5,5.8-3,6.3-6.3h9.2c0.5,3.2,3.1,5.8,6.3,6.3v8.7c-3.6,0.6-6.4,3.7-6.4,7.4
			c0,4.1,3.3,7.3,7.6,7.3c4.2,0,7.6-3.2,7.6-7.3C492.5,615.2,489.7,612.1,486.1,611.5"/>
	</g>
	<path pointer-events="all" class="st19" d="M380.5,393.5h25v25h-25V393.5z"/>
	<path pointer-events="all" class="st9" d="M388.7,415.3h-4.4l4.9-10.3l2.2,4.6L388.7,415.3z M389.5,404.1c-0.1-0.1-0.2-0.2-0.3-0.2
		l0,0c-0.1,0-0.3,0.1-0.3,0.2l-5.5,11.4c0,0.1,0,0.2,0,0.3c0.1,0.1,0.2,0.2,0.3,0.2h5.2c0.1,0,0.3-0.1,0.3-0.2l2.9-6
		c0-0.1,0-0.2,0-0.3L389.5,404.1z M401.9,415.3h-4.4l-7.1-14.8c-0.1-0.1-0.2-0.2-0.3-0.2h-2.9v-3.6h5.6l7,14.8
		c0.1,0.1,0.2,0.2,0.3,0.2h1.7V415.3z M402.3,411h-1.8l-7-14.8c-0.1-0.1-0.2-0.2-0.3-0.2h-6.2c-0.2,0-0.4,0.2-0.4,0.4v4.3
		c0,0.1,0,0.2,0.1,0.3c0.1,0.1,0.2,0.1,0.3,0.1h3l7.1,14.8c0.1,0.1,0.2,0.2,0.3,0.2h5c0.2,0,0.4-0.2,0.4-0.4v-4.3
		C402.6,411.2,402.5,411,402.3,411z"/>
	<g transform="translate(-0.5 -0.5)">
		<text transform="matrix(1 0 0 1 326.7288 338.6648)" class="st15 st3 st20"> Input </text>
	</g>
	<g transform="translate(-0.5 -0.5)">
		<text transform="matrix(1 0 0 1 566.8716 364.5353)" class="st15 st3 st20">Output</text>
	</g>
	<path pointer-events="stroke" class="st21" d="M461.5,313.5l-0.9,71.6"/>
	<path pointer-events="all" class="st22" d="M460.5,390.4l-3.4-7l3.5,1.8l3.5-1.7L460.5,390.4z"/>
	<path pointer-events="all" class="st22" d="M510.2,390.6l-3.4-7l3.5,1.8l3.5-1.7L510.2,390.6z"/>
	<g>
		<path pointer-events="all" class="st13" d="M694.6,63.6h47.5v47.5h-47.5V63.6z"/>
		<path pointer-events="all" class="st9" d="M737.3,86.9c0,4.7-3.2,6.4-5.1,7l-0.4-1.3c1.9-0.6,4.2-2.1,4.2-5.7c0-4.6-3.8-5.7-5.4-6
			c-0.4-0.1-0.6-0.4-0.6-0.8l0,0c-0.2-2.1-1.1-3.6-2.6-4c-1.2-0.4-2.5,0.1-3.4,1.2c-0.1,0.2-0.4,0.3-0.6,0.3c-0.2,0-0.5-0.2-0.5-0.4
			c-0.6-1.6-1.4-2.9-2.4-4c-1.3-1.3-4.8-4.1-9.7-2c-2.9,1.2-5.1,4.7-5.1,8c0,0.4,0,0.7,0.1,1.1c0,0.3-0.2,0.7-0.5,0.7
			c-1.7,0.4-4.5,1.8-4.5,5.9c0,0.1,0,0.3,0,0.4c0.1,2.6,2,4.9,4.7,5.5l-0.3,1.3c-3.2-0.7-5.6-3.5-5.7-6.7c0-0.2,0-0.3,0-0.5
			c0-4.7,3.1-6.4,5-7c0-0.2,0-0.4,0-0.7c0-3.8,2.5-7.8,5.9-9.2c3.9-1.7,8.1-0.8,11.2,2.2c1,1,1.7,2.1,2.3,3.5c1.1-0.9,2.6-1.3,4-0.9
			c1.9,0.6,3.2,2.4,3.5,4.9C733.2,80.1,737.3,81.7,737.3,86.9z M729.8,101.8l-4.7,2.6v-5.8l4.7-2.7V101.8z M717.7,101.8l-4.7,2.7
			v-5.9l4.7-2.7V101.8z M712.4,97.4l-4.7-2.6l4.7-2.6l4.6,2.6L712.4,97.4z M707,95.9l4.7,2.6v5.9l-4.7-2.7V95.9z M718.4,82l4.6,2.6
			l-4.7,2.6l-4.6-2.6L718.4,82z M719.8,94.7l4.7-2.6l4.7,2.6l-4.7,2.6L719.8,94.7z M719,95.9l4.7,2.7v5.8l-4.7-2.7V95.9z
			 M723.8,90.9l-4.7,2.6v-5.2l4.7-2.6V90.9z M713,85.8l4.7,2.6v5.2L713,91V85.8z M730.8,94.2C730.8,94.2,730.8,94.2,730.8,94.2
			L730.8,94.2l-5.7-3.2v-6.3c0-0.2-0.1-0.5-0.3-0.6h0v0l-6-3.4c-0.2-0.1-0.5-0.1-0.7,0l-6,3.4l0,0c0,0,0,0,0,0
			c-0.2,0.1-0.3,0.3-0.3,0.6V91l-5.7,3.2l0,0c0,0,0,0,0,0c-0.2,0.1-0.3,0.3-0.3,0.6v7.4c0,0.2,0.1,0.5,0.3,0.6l6.1,3.5h0l0,0
			c0.1,0.1,0.2,0.1,0.3,0.1c0.1,0,0.2,0,0.3-0.1l5.7-3.3l5.7,3.2l0,0c0.1,0.1,0.2,0.1,0.3,0.1s0.2,0,0.3-0.1l6-3.4
			c0.2-0.1,0.3-0.3,0.3-0.6v-7.4C731.1,94.5,731,94.3,730.8,94.2z"/>
	</g>
	<g>
		<path pointer-events="all" class="st19" d="M220.5,675.5h80v80h-80V675.5z"/>
		<path pointer-events="all" class="st9" d="M246.8,745.2h-14.2l15.7-32.8l7.1,14.6L246.8,745.2z M249.4,709.3
			c-0.2-0.4-0.6-0.6-1-0.6l0,0c-0.4,0-0.9,0.2-1,0.7l-17.5,36.6c-0.2,0.4-0.1,0.8,0.1,1.1c0.2,0.3,0.6,0.5,1,0.5h16.7
			c0.4,0,0.8-0.2,1-0.7l9.2-19.3c0.2-0.3,0.2-0.7,0-1L249.4,709.3z M289.1,745.2H275l-22.6-47.3c-0.2-0.4-0.6-0.7-1-0.7h-9.2l0-11.4
			h18.1l22.5,47.3c0.2,0.4,0.6,0.7,1,0.7h5.3V745.2z M290.2,731.5h-5.8L262,684.2c-0.2-0.4-0.6-0.7-1-0.7H241
			c-0.6,0-1.1,0.5-1.1,1.1l0,13.7c0,0.3,0.1,0.6,0.3,0.8c0.2,0.2,0.5,0.3,0.8,0.3h9.6l22.6,47.3c0.2,0.4,0.6,0.7,1,0.7h16
			c0.6,0,1.2-0.5,1.2-1.1v-13.7C291.4,732,290.9,731.5,290.2,731.5z"/>
	</g>
	<rect x="220.5" y="753.5" pointer-events="all" class="st0" width="80" height="30"/>
	<g transform="translate(-0.5 -0.5)">
		<text transform="matrix(1 0 0 1 224.7158 768.9996)" class="st14"><tspan x="0" y="0" class="st15 st3 st4">Lambdas for</tspan><tspan x="-2.7" y="14.4" class="st15 st3 st4">Control Logic</tspan></text>
	</g>
	<rect x="420.5" y="433.5" pointer-events="all" class="st0" width="38.5" height="38.5"/>
	<rect x="460" y="433.5" pointer-events="all" class="st0" width="38.5" height="38.5"/>
	<rect x="420.5" y="474" pointer-events="all" class="st0" width="38.5" height="38.6"/>
	<rect x="460" y="474" pointer-events="all" class="st0" width="38.5" height="38.6"/>
	<g>
		<rect x="420.5" y="433.5" pointer-events="all" class="st17" width="80" height="80"/>
		<g>
			<path pointer-events="all" class="st19" d="M423,453.3c0-9.7,7.9-17.5,17.5-17.5c9.7,0,17.5,7.9,17.5,17.5
				c0,9.7-7.9,17.5-17.5,17.5C430.8,470.8,423,462.9,423,453.3z M421.2,453.3c0,10.6,8.6,19.3,19.3,19.3s19.3-8.6,19.3-19.3
				s-8.6-19.3-19.3-19.3S421.2,442.6,421.2,453.3z M434.6,463.1h-4.7l5.5-11.6l2.4,4.9L434.6,463.1z M436.2,449.1
				c-0.1-0.3-0.5-0.5-0.8-0.5l0,0c-0.3,0-0.6,0.2-0.8,0.5l-7,14.5c-0.1,0.3-0.1,0.6,0,0.9c0.2,0.2,0.4,0.4,0.8,0.4h6.6
				c0.3,0,0.6-0.2,0.8-0.5l3.6-7.7c0.1-0.2,0.1-0.5,0-0.8L436.2,449.1z M451.1,463.1h-4.8l-8.7-18.7c-0.1-0.3-0.5-0.5-0.8-0.5h-3.2
				v-3.6h6.3l8.6,18.7c0.1,0.3,0.5,0.5,0.8,0.5h1.6V463.1z M450,457.8l-8.6-18.7c-0.1-0.3-0.5-0.5-0.8-0.5h-7.8
				c-0.5,0-0.9,0.4-0.9,0.9l0,5.4c0,0.2,0.1,0.5,0.3,0.6c0.2,0.2,0.4,0.3,0.6,0.3h3.5l8.7,18.7c0.1,0.3,0.5,0.5,0.8,0.5h6.2
				c0.5,0,0.9-0.4,0.9-0.9v-5.4c0-0.5-0.4-0.9-0.9-0.9H450z"/>
			<path pointer-events="all" class="st19" d="M463,453.3c0-9.7,7.9-17.5,17.5-17.5s17.5,7.9,17.5,17.5c0,9.7-7.9,17.5-17.5,17.5
				S463,462.9,463,453.3z M461.2,453.3c0,10.6,8.7,19.3,19.3,19.3c10.6,0,19.3-8.6,19.3-19.3s-8.6-19.3-19.3-19.3
				C469.9,434,461.2,442.6,461.2,453.3z M474.6,463.1h-4.7l5.6-11.6l2.4,4.9L474.6,463.1z M476.2,449.1c-0.1-0.3-0.4-0.5-0.8-0.5
				l0,0c-0.3,0-0.7,0.2-0.8,0.5l-6.9,14.5c-0.1,0.3-0.1,0.6,0,0.9c0.2,0.2,0.4,0.4,0.7,0.4h6.6c0.3,0,0.6-0.2,0.8-0.5l3.6-7.7
				c0.1-0.2,0.1-0.5,0-0.8L476.2,449.1z M491.1,463.1h-4.8l-8.7-18.7c-0.1-0.3-0.4-0.5-0.8-0.5h-3.2l0-3.6h6.3l8.6,18.7
				c0.1,0.3,0.5,0.5,0.8,0.5h1.6V463.1z M490,457.8l-8.6-18.7c-0.2-0.3-0.5-0.5-0.8-0.5h-7.8c-0.5,0-0.9,0.4-0.9,0.9v5.4
				c0,0.2,0.1,0.5,0.2,0.6c0.2,0.2,0.4,0.3,0.6,0.3h3.5l8.7,18.7c0.1,0.3,0.5,0.5,0.8,0.5h6.2c0.5,0,0.9-0.4,0.9-0.9v-5.4
				c0-0.5-0.4-0.9-0.9-0.9H490z"/>
			<path pointer-events="all" class="st19" d="M423,493.7c0-9.7,7.9-17.5,17.5-17.5c9.7,0,17.5,7.9,17.5,17.5s-7.9,17.5-17.5,17.5
				C430.8,511.3,423,503.4,423,493.7z M421.2,493.7c0,10.6,8.6,19.3,19.3,19.3s19.3-8.6,19.3-19.3s-8.6-19.3-19.3-19.3
				S421.2,483.1,421.2,493.7z M434.6,503.6h-4.7l5.5-11.6l2.4,4.9L434.6,503.6z M436.2,489.6c-0.1-0.3-0.5-0.5-0.8-0.5l0,0
				c-0.3,0-0.6,0.2-0.8,0.5l-7,14.5c-0.1,0.3-0.1,0.6,0,0.9c0.2,0.2,0.4,0.4,0.8,0.4h6.6c0.3,0,0.6-0.2,0.8-0.5l3.6-7.7
				c0.1-0.2,0.1-0.5,0-0.8L436.2,489.6z M451.1,503.6h-4.8l-8.7-18.7c-0.1-0.3-0.5-0.5-0.8-0.5h-3.2v-3.6h6.3l8.6,18.6
				c0.1,0.3,0.5,0.5,0.8,0.5h1.6V503.6z M450,498.2l-8.6-18.7c-0.1-0.3-0.5-0.5-0.8-0.5h-7.8c-0.5,0-0.9,0.4-0.9,0.9l0,5.4
				c0,0.2,0.1,0.5,0.3,0.6c0.2,0.2,0.4,0.2,0.6,0.2h3.5l8.7,18.7c0.1,0.3,0.5,0.5,0.8,0.5h6.2c0.5,0,0.9-0.4,0.9-0.9v-5.4
				c0-0.5-0.4-0.9-0.9-0.9H450z"/>
			<path pointer-events="all" class="st19" d="M463,493.7c0-9.7,7.9-17.5,17.5-17.5s17.5,7.9,17.5,17.5s-7.9,17.5-17.5,17.5
				S463,503.4,463,493.7z M461.2,493.7c0,10.6,8.7,19.3,19.3,19.3c10.6,0,19.3-8.6,19.3-19.3s-8.6-19.3-19.3-19.3
				C469.9,474.5,461.2,483.1,461.2,493.7z M474.6,503.6h-4.7l5.6-11.6l2.4,4.9L474.6,503.6z M476.2,489.6c-0.1-0.3-0.4-0.5-0.8-0.5
				l0,0c-0.3,0-0.7,0.2-0.8,0.5l-6.9,14.5c-0.1,0.3-0.1,0.6,0,0.9s0.4,0.4,0.7,0.4h6.6c0.3,0,0.6-0.2,0.8-0.5l3.6-7.7
				c0.1-0.2,0.1-0.5,0-0.8L476.2,489.6z M491.1,503.6h-4.8l-8.7-18.7c-0.1-0.3-0.4-0.5-0.8-0.5h-3.2l0-3.6h6.3l8.6,18.6
				c0.1,0.3,0.5,0.5,0.8,0.5h1.6V503.6z M490,498.2l-8.6-18.7c-0.2-0.3-0.5-0.5-0.8-0.5h-7.8c-0.5,0-0.9,0.4-0.9,0.9v5.4
				c0,0.2,0.1,0.5,0.2,0.6c0.2,0.2,0.4,0.2,0.6,0.2h3.5l8.7,18.7c0.1,0.3,0.5,0.5,0.8,0.5h6.2c0.5,0,0.9-0.4,0.9-0.9v-5.4
				c0-0.5-0.4-0.9-0.9-0.9H490z"/>
		</g>
	</g>
	<rect x="420.5" y="631.5" pointer-events="all" class="st0" width="80" height="33.3"/>
	<g transform="translate(-0.5 -0.5)">
		<text transform="matrix(1 0 0 1 435.538 650.3398)" class="st14"><tspan x="0" y="0" class="st15 st3 st4">S3 Batch</tspan><tspan x="-7.3" y="14.4" class="st15 st3 st4">Operations</tspan></text>
	</g>
	<g>
		<path pointer-events="all" class="st5" d="M740.5,675.5h80v80h-80V675.5z"/>
		<path pointer-events="all" class="st9" d="M799.5,716.5l-2.2,0.1c-0.4-1.3-0.9-2.5-1.5-3.6l1.7-1.5c0.2-0.2,0.4-0.5,0.4-0.8
			c0-0.3-0.1-0.6-0.3-0.8l-5.3-5.3c-0.2-0.2-0.5-0.4-0.8-0.3c-0.3,0-0.6,0.2-0.8,0.4l-1.5,1.7c-1.2-0.6-2.4-1.1-3.6-1.5l0.1-2.2
			c0-0.3-0.1-0.6-0.3-0.8c-0.2-0.2-0.5-0.4-0.8-0.4h-7.6c-0.3,0-0.6,0.1-0.8,0.4c-0.2,0.2-0.3,0.5-0.3,0.8l0.1,2.2
			c-1.3,0.4-2.5,0.9-3.7,1.5l-1.5-1.7c-0.2-0.2-0.5-0.4-0.8-0.4c-0.3,0-0.6,0.1-0.8,0.3l-5.3,5.3c-0.2,0.2-0.3,0.5-0.3,0.8
			c0,0.3,0.1,0.6,0.4,0.8l1.7,1.5c-0.6,1.1-1.2,2.4-1.5,3.6l-2.2-0.1c-0.3,0-0.6,0.1-0.9,0.3c-0.2,0.2-0.3,0.5-0.3,0.8v7.6
			c0,0.3,0.1,0.6,0.3,0.8c0.2,0.2,0.5,0.3,0.9,0.3l2.2-0.1c0.4,1.3,0.9,2.5,1.5,3.7l-1.7,1.5c-0.2,0.2-0.4,0.5-0.4,0.8
			c0,0.3,0.1,0.6,0.3,0.8l5.3,5.4c0.2,0.2,0.5,0.3,0.8,0.3c0.3,0,0.6-0.1,0.8-0.4l1.5-1.6c1.2,0.6,2.4,1.1,3.7,1.5l-0.1,2.2
			c0,0.3,0.1,0.6,0.3,0.9c0.2,0.2,0.5,0.4,0.8,0.4h7.6c0.3,0,0.6-0.1,0.8-0.4c0.2-0.2,0.3-0.5,0.3-0.9l-0.1-2.2
			c1.3-0.4,2.5-0.9,3.7-1.5l1.5,1.6c0.2,0.2,0.5,0.4,0.8,0.4c0.3,0,0.6-0.1,0.8-0.3l5.3-5.4c0.2-0.2,0.3-0.5,0.3-0.8
			c0-0.3-0.1-0.6-0.4-0.8l-1.7-1.5c0.7-1.2,1.2-2.4,1.5-3.6l2.2,0.1c0.3,0,0.6-0.1,0.9-0.3c0.2-0.2,0.3-0.5,0.3-0.8v-7.6
			c0-0.3-0.1-0.6-0.3-0.8C800.1,716.6,799.8,716.5,799.5,716.5z M798.4,724l-2-0.1c-0.5,0-1.1,0.4-1.2,0.9c-0.4,1.7-1,3.3-2,4.7
			c-0.3,0.5-0.2,1.1,0.2,1.5l1.5,1.3l-3.6,3.6l-1.3-1.5c-0.4-0.4-1-0.5-1.5-0.2c-1.5,0.9-3,1.6-4.7,2c-0.5,0.1-0.9,0.6-0.9,1.2
			l0.1,1.9h-5.1l0.1-1.9c0-0.6-0.3-1.1-0.9-1.2c-1.7-0.4-3.3-1-4.7-2c-0.5-0.3-1.1-0.2-1.5,0.2l-1.3,1.5l-3.6-3.6l1.5-1.3
			c0.4-0.4,0.5-1,0.2-1.5c-0.9-1.5-1.6-3-2-4.7c-0.1-0.5-0.6-0.9-1.2-0.9l-2,0.1v-5.1l2,0.1c0.5,0,1-0.3,1.2-0.9
			c0.4-1.7,1-3.2,2-4.7c0.3-0.5,0.2-1.1-0.2-1.5l-1.5-1.3l3.6-3.6l1.3,1.5c0.4,0.4,1,0.5,1.5,0.2c1.5-0.9,3-1.6,4.7-1.9
			c0.5-0.1,0.9-0.6,0.9-1.2l-0.1-2h5.1l-0.1,2c0,0.6,0.3,1.1,0.9,1.2c1.7,0.4,3.3,1,4.7,2c0.5,0.3,1.1,0.2,1.5-0.2l1.3-1.5l3.6,3.6
			l-1.5,1.3c-0.4,0.4-0.5,1-0.2,1.5c0.9,1.4,1.6,3,2,4.7c0.1,0.5,0.7,0.9,1.2,0.9l2-0.1V724z M780.5,712.7c-4.8,0-8.8,3.9-8.8,8.8
			c0,4.8,3.9,8.8,8.8,8.8s8.8-3.9,8.8-8.8C789.3,716.6,785.3,712.7,780.5,712.7z M780.5,727.9c-3.6,0-6.5-2.9-6.5-6.5
			c0-3.6,2.9-6.5,6.5-6.5s6.5,2.9,6.5,6.5C787,725,784.1,727.9,780.5,727.9z M811.4,683.5h-61.7c-0.6,0-1.1,0.5-1.1,1.1v61.7
			c0,0.6,0.5,1.1,1.1,1.1h37.7v-2.3h-36.6v-48h59.4v48h-8v2.3h9.1c0.6,0,1.1-0.5,1.1-1.1v-61.7C812.5,684,812,683.5,811.4,683.5z
			 M750.8,694.9v-9.1h59.4v9.1H750.8z M753.1,691.5h3.4v-2.3h-3.4V691.5z M758.8,691.5h3.4v-2.3h-3.4V691.5z M764.5,691.5h3.4v-2.3
			h-3.4V691.5z"/>
	</g>
	<g>
		<path pointer-events="all" class="st23" d="M740.5,433.5h80v80h-80V433.5z"/>
		<path pointer-events="all" class="st9" d="M761.4,460.6h-11.8c-0.6,0-1.2,0.5-1.2,1.2v42.3c0,0.7,0.5,1.2,1.2,1.2h11.8
			c0.7,0,1.2-0.5,1.2-1.2v-42.3C762.6,461.1,762.1,460.6,761.4,460.6z M750.8,502.9v-40h9.4v40H750.8z M767.3,468.8H765v-15.3
			c0-0.7,0.5-1.2,1.2-1.2h11.8c0.6,0,1.2,0.5,1.2,1.2v4.7h-2.4v-3.5h-9.4V468.8z M776.7,495.8h2.4v8.2c0,0.7-0.5,1.2-1.2,1.2h-11.8
			c-0.7,0-1.2-0.5-1.2-1.2v-17.6h2.4v16.5h9.4V495.8z M783.8,457h-2.4v-14.1c0-0.7,0.5-1.2,1.2-1.2h11.8c0.7,0,1.2,0.5,1.2,1.2v16.5
			h-2.3v-15.3h-9.4V457z M793.2,498.2h2.3v5.9c0,0.7-0.5,1.2-1.2,1.2h-11.8c-0.7,0-1.2-0.5-1.2-1.2V497h2.4v5.9h9.4V498.2z M812,450
			v40h-2.4v-38.8h-9.4v12.9h-2.4V450c0-0.7,0.5-1.2,1.2-1.2h11.8C811.5,448.8,812,449.3,812,450z M800.3,484.7
			c1.1-2.2,1.7-4.7,1.7-7.3c0-9.2-7.5-16.8-16.8-16.8s-16.8,7.5-16.8,16.8c0,9.2,7.5,16.8,16.8,16.8c3.4,0,6.6-1,9.2-2.8l10.1,9.1
			c0.9,0.8,1.9,1.1,3,1.1c1.2,0,2.4-0.5,3.3-1.5c1.6-1.8,1.5-4.6-0.3-6.3L800.3,484.7z M770.9,477.4c0-8,6.5-14.4,14.4-14.4
			c8,0,14.4,6.5,14.4,14.4c0,7.9-6.5,14.4-14.4,14.4C777.3,491.8,770.9,485.4,770.9,477.4z M809.1,498.6c-0.8,0.9-2.1,0.9-2.9,0.2
			l-9.8-8.9c1-0.9,2-2,2.8-3.1l9.8,8.9C809.8,496.4,809.9,497.8,809.1,498.6z M785.3,465.6c-6.5,0-11.8,5.3-11.8,11.8
			c0,6.5,5.3,11.8,11.8,11.8s11.8-5.3,11.8-11.8C797,470.9,791.8,465.6,785.3,465.6z M785.3,486.8c-5.2,0-9.4-4.2-9.4-9.4
			c0-5.2,4.2-9.4,9.4-9.4c5.2,0,9.4,4.2,9.4,9.4C794.7,482.6,790.5,486.8,785.3,486.8z"/>
	</g>
	<rect x="740.5" y="513.5" pointer-events="all" class="st0" width="80" height="30"/>
	<g transform="translate(-0.5 -0.5)">
		<text transform="matrix(1 0 0 1 744.553 527.9998)" class="st14"><tspan x="0" y="0" class="st15 st3 st4">Elasticsearch</tspan><tspan x="-2.7" y="14.4" class="st15 st3 st4">Fulltext Index</tspan></text>
	</g>
	<rect x="740.5" y="751.5" pointer-events="all" class="st0" width="80" height="30"/>
	<g transform="translate(-0.5 -0.5)">
		<text transform="matrix(1 0 0 1 741.092 768.9996)" class="st14"><tspan x="0" y="0" class="st15 st3 st4">metaphactory</tspan><tspan x="12.1" y="14.4" class="st15 st3 st4">(optional)</tspan></text>
	</g>
	<path pointer-events="stroke" class="st24" d="M660.5,313.5v112.6"/>
	<path pointer-events="all" class="st25" d="M660.5,431.4l-3.5-7l3.5,1.8l3.5-1.8L660.5,431.4z"/>
	<path pointer-events="all" class="st25" d="M629.7,322.2l-3.5-1.8l-3.5,1.8l3.5-7L629.7,322.2z"/>
	<path pointer-events="all" class="st25" d="M463.4,522l-3.5-1.8l-3.5,1.8l3.5-7L463.4,522z"/>
	<rect x="81.2" y="113.5" pointer-events="all" class="st0" width="67.2" height="30"/>
	<g transform="translate(-0.5 -0.5)">
		<text transform="matrix(1 0 0 1 81.0459 130.5)" class="st14"><tspan x="0" y="0" class="st15 st3 st4">CSV, RDF,</tspan><tspan x="0" y="14.4" class="st15 st3 st4">JSON, XML</tspan></text>
	</g>
	<rect x="167.6" y="113.5" pointer-events="all" class="st0" width="67.1" height="30"/>
	<g transform="translate(-0.5 -0.5)">
		<text transform="matrix(1 0 0 1 174.461 130.5)" class="st14"><tspan x="0" y="0" class="st15 st3 st4">Database </tspan><tspan x="6.7" y="14.4" class="st15 st3 st4">content</tspan></text>
	</g>
	<rect x="252.6" y="113.5" pointer-events="all" class="st0" width="67.1" height="30"/>
	<g transform="translate(-0.5 -0.5)">
		<text transform="matrix(1 0 0 1 255.8779 130.4996)" class="st14"><tspan x="0" y="0" class="st15 st3 st4">Files from  </tspan><tspan x="4.3" y="14.4" class="st15 st3 st4">Git repos</tspan></text>
	</g>
	<path pointer-events="all" class="st25" d="M260.4,232.4l-3.4-7l3.5,1.8l3.5-1.7L260.4,232.4z"/>
	<g transform="translate(-0.5 -0.5)">
		<text transform="matrix(1 0 0 1 214.46 178.5589)" class="st15 st3 st20">Upload</text>
	</g>
	<rect x="390.5" y="112.3" pointer-events="all" class="st0" width="67.1" height="30"/>
	<g transform="translate(-0.5 -0.5)">
		<text transform="matrix(1 0 0 1 387.4622 132.4998)" class="st14"><tspan x="0" y="0" class="st15 st3 st4">Customized</tspan><tspan x="15.4" y="14.4" class="st15 st3 st4">scripts</tspan></text>
	</g>
	<rect x="580.5" y="21" pointer-events="all" class="st1" width="280" height="130"/>
	<g transform="translate(-0.5 -0.5)">
		<text transform="matrix(1 0 0 1 644.0117 44.5)" class="st2 st3 st4">ETL Pipeline Implementation</text>
	</g>
	<path pointer-events="all" class="st10" d="M804.4,63c1.1-0.8,2.5-0.8,3.6,0l22.5,22.5c0.8,1.1,0.8,2.5,0,3.5l-22,22.2
		c-0.6,0.6-1.4,0.9-2.2,0.9c-0.8,0-1.6-0.3-2.2-0.9L782,89c-0.8-1-0.8-2.5,0-3.5l15.3-15.3l5.5,5.5c-0.7,2,0.3,4.2,2.2,5v13.7
		c-1.6,0.7-2.5,2.5-2.1,4.2c0.4,1.7,1.9,3,3.7,3c1.8,0,3.3-1.2,3.7-3c0.4-1.7-0.5-3.5-2.1-4.2V81l5.2,5.2c-0.7,1.7-0.1,3.5,1.4,4.5
		c1.5,1,3.4,0.8,4.7-0.5c1.3-1.2,1.5-3.2,0.5-4.7c-0.9-1.5-2.8-2.1-4.5-1.5l-5.5-5.5c0.5-1.4,0.2-3-0.8-4c-1-1-2.6-1.4-4-0.8
		l-5.7-5.6L804.4,63z"/>
	<rect x="601.2" y="112.3" pointer-events="all" class="st0" width="67.2" height="30"/>
	<g transform="translate(-0.5 -0.5)">
		<text transform="matrix(1 0 0 1 610.4111 132.4996)" class="st14"><tspan x="0" y="0" class="st15 st3 st4">Lambda </tspan><tspan x="-2.3" y="14.4" class="st15 st3 st4">functions</tspan></text>
	</g>
	<rect x="687.6" y="112.3" pointer-events="all" class="st0" width="67.2" height="30"/>
	<g transform="translate(-0.5 -0.5)">
		<text transform="matrix(1 0 0 1 686.3951 132.4998)" class="st14"><tspan x="0" y="0" class="st15 st3 st4">CDK setup </tspan><tspan x="13.1" y="14.4" class="st15 st3 st4">scripts</tspan></text>
	</g>
	<rect x="772.6" y="112.3" pointer-events="all" class="st0" width="67.2" height="30"/>
	<g transform="translate(-0.5 -0.5)">
		<text transform="matrix(1 0 0 1 782.7449 132.4993)" class="st14"><tspan x="0" y="0" class="st15 st3 st4">Pipeline</tspan><tspan x="-5.2" y="14.4" class="st15 st3 st4">definition</tspan></text>
	</g>
	<path pointer-events="all" class="st25" d="M461.2,232.4l-3.6-6.9l3.5,1.7l3.5-1.8L461.2,232.4z"/>
	<path pointer-events="all" class="st25" d="M660.6,232.5l-3.6-6.9l3.5,1.7l3.5-1.8L660.6,232.5z"/>
	<g>
		<path pointer-events="all" class="st26" d="M100.5,433.5h80v80h-80V433.5z"/>
		<path pointer-events="all" class="st9" d="M162.1,479.2c0,0.1-0.1,6.2-2.8,12.2c-3.6,7.9-9.9,11.9-18.8,11.9
			c-8.9,0-15.2-4.3-18.8-12.7c-2.7-6.4-2.8-12.9-2.8-13v-25.4l21.6-8.3l21.6,8.3V479.2z M163.6,450.4l-22.7-8.8
			c-0.3-0.1-0.6-0.1-0.8,0l-22.7,8.8c-0.4,0.2-0.7,0.6-0.7,1.1v26.1c0,0.3,0.3,27.9,23.9,27.9s23.9-26,23.9-26.3v-27.8
			C164.4,451,164.1,450.5,163.6,450.4z M156.4,479.2c0,1.8-0.6,17.5-14.8,18.3v-47.1l14.8,5.7V479.2z M124.6,477.6v-21.5l14.8-5.7
			v47.1C124.8,496.6,124.6,478.4,124.6,477.6z M140.1,447.7l-17,6.6c-0.4,0.2-0.7,0.6-0.7,1.1v22.2c0,0.9,0.2,22.2,18.2,22.2
			c7.3,0,12.7-3.3,15.7-9.6c2.3-4.9,2.5-10,2.5-11v-23.9c0-0.5-0.3-0.9-0.7-1.1l-17.1-6.6C140.6,447.6,140.4,447.6,140.1,447.7z"/>
	</g>
	<g>
		<path pointer-events="all" class="st5" d="M100.5,675.5h80v80h-80V675.5z"/>
		<path pointer-events="all" class="st9" d="M155.4,716h5.7v-2.3h-5.7V716z M126.8,729.8h5.7v-2.3h-5.7V729.8z M115.4,729.8h8v-2.3
			h-8V729.8z M115.4,722.9h13.7v-2.3h-13.7V722.9z M115.4,709.2h10.3v-2.3h-10.3V709.2z M115.4,716h37.7v-2.3h-37.7V716z
			 M137.1,741.2h-26.3v-38.9h26.3v9.2h2.3v-10.3c0-0.6-0.5-1.2-1.1-1.2h-28.6c-0.6,0-1.1,0.5-1.1,1.2v41.2c0,0.6,0.5,1.2,1.1,1.2
			h28.6c0.6,0,1.1-0.5,1.1-1.2v-22.9h-2.3V741.2z M172.5,712.6c0,7.4-6.7,10-10.2,10.3h-18.4v-2.3h18.3c0.2,0,8-0.9,8-8
			c0-6.5-5.9-7.8-7-8c-0.6-0.1-1-0.6-0.9-1.2c0,0,0,0,0-0.1c-0.1-3.7-2.3-4.8-3.3-5.2c-1.8-0.6-3.9,0-4.9,1.4
			c-0.2,0.3-0.7,0.5-1.1,0.5c-0.4-0.1-0.8-0.3-0.9-0.8c-0.7-2-1.7-3.3-3.2-4.7c-3.6-3.6-8.4-4.5-13-2.6c-2.4,1-4.5,3.3-5.7,6.3
			l-2.1-0.9c1.5-3.5,4-6.2,6.9-7.5c5.4-2.3,11.2-1.1,15.5,3.1c1.2,1.2,2.2,2.4,3,4c1.7-1.3,4-1.6,6.2-0.9c2.8,0.9,4.5,3.3,4.8,6.5
			C168.4,703.5,172.5,706.6,172.5,712.6z"/>
	</g>
	<path pointer-events="none" class="st27" d="M60.5,393.5h280v400h-280V393.5z"/>
	<path pointer-events="all" class="st28" d="M73,397.3c-1,0-1.8,0.8-1.8,1.8c0,0.9,0.6,1.6,1.4,1.7v0.7h-4.8c-0.2,0-0.4,0.2-0.4,0.4
		v1.4h-2.7c-0.2,0-0.4,0.2-0.4,0.4v1.8c0,0.2,0.2,0.4,0.4,0.4h2.7v0.6h-2.7c-0.2,0-0.4,0.2-0.4,0.4v1.8c0,0.2,0.2,0.4,0.4,0.4h2.7
		v1.4c0,0.2,0.2,0.4,0.4,0.4h4.8v0.7c-0.8,0.2-1.4,0.9-1.4,1.7c0,1,0.8,1.8,1.8,1.8c1,0,1.8-0.8,1.8-1.8c0-0.8-0.6-1.6-1.4-1.7v-0.7
		h4.8c0.2,0,0.4-0.2,0.4-0.4v-1.8h-0.8v1.4h-9.7v-1h2.8c0.2,0,0.4-0.2,0.4-0.4v-1.8c0-0.2-0.2-0.4-0.4-0.4h-2.8v-0.6H71
		c0.2,0,0.4-0.2,0.4-0.4v-1.8c0-0.2-0.2-0.4-0.4-0.4h-2.8v-1h9.7v1.7h0.8v-2.1c0-0.2-0.2-0.4-0.4-0.4h-4.8v-0.7
		c0.8-0.2,1.4-0.9,1.4-1.7C74.8,398.1,74,397.3,73,397.3z M73,398.1c0.6,0,1,0.4,1,1c0,0.6-0.4,1-1,1c-0.6,0-1-0.4-1-1
		C72,398.5,72.4,398.1,73,398.1z M65.1,404h5.5v1h-5.5V404z M74.4,404.6c-0.2,0-0.4,0.2-0.4,0.4v2.4c0,0.2,0.2,0.4,0.4,0.4h6.9
		c0.2,0,0.4-0.2,0.4-0.4V405c0-0.2-0.2-0.4-0.4-0.4H74.4z M74.8,405.4H81v1.7h-6.2V405.4z M65.1,407.1h5.5v1h-5.5V407.1z M73,411.9
		c0.6,0,1,0.5,1,1c0,0.6-0.5,1-1,1c-0.6,0-1-0.4-1-1C72,412.4,72.5,411.9,73,411.9z M60.5,418.5v-25h25v25H60.5z"/>
	<g transform="translate(-0.5 -0.5)">
		<text transform="matrix(1 0 0 1 92.5 412.8334)" class="st28 st3 st4">ETL CloudFormation Stack</text>
	</g>
	<path pointer-events="all" class="st5" d="M60.5,393.5h25v25h-25V393.5z"/>
	<path pointer-events="all" class="st9" d="M77.6,406.2h1.8v-0.7h-1.8V406.2z M68.7,410.5h1.8v-0.7h-1.8V410.5z M65.1,410.5h2.5
		v-0.7h-2.5V410.5z M65.1,408.3h4.3v-0.7h-4.3V408.3z M65.1,404h3.2v-0.7h-3.2V404z M65.1,406.2h11.8v-0.7H65.1V406.2z M71.9,414
		h-8.2v-12.2h8.2v2.9h0.7v-3.2c0-0.2-0.2-0.4-0.3-0.4h-8.9c-0.2,0-0.4,0.2-0.4,0.4v12.9c0,0.2,0.2,0.4,0.4,0.4h8.9
		c0.2,0,0.3-0.2,0.3-0.4v-7.2h-0.7V414z M83,405.1c0,2.3-2.1,3.1-3.2,3.2h-5.8v-0.7h5.7c0.1,0,2.5-0.3,2.5-2.5c0-2-1.8-2.4-2.2-2.5
		c-0.2,0-0.3-0.2-0.3-0.4c0,0,0,0,0,0c0-1.1-0.7-1.5-1-1.6c-0.6-0.2-1.2,0-1.5,0.4c-0.1,0.1-0.2,0.2-0.3,0.1c-0.1,0-0.2-0.1-0.3-0.2
		c-0.2-0.6-0.5-1-1-1.5c-1.1-1.1-2.6-1.4-4.1-0.8c-0.7,0.3-1.4,1-1.8,1.9l-0.7-0.3c0.5-1.1,1.2-1.9,2.2-2.3c1.7-0.7,3.5-0.4,4.8,1
		c0.4,0.4,0.7,0.8,0.9,1.2c0.5-0.4,1.3-0.5,1.9-0.3c0.9,0.3,1.4,1,1.5,2C81.7,402.2,83,403.2,83,405.1z"/>
	<rect x="100.5" y="633.5" pointer-events="all" class="st0" width="80" height="30"/>
	<g transform="translate(-0.5 -0.5)">
		<text transform="matrix(1 0 0 1 105.2699 648.9998)" class="st14"><tspan x="0" y="0" class="st15 st3 st4">Notifications</tspan><tspan x="7.8" y="14.4" class="st15 st3 st4">for events</tspan></text>
	</g>
	<rect x="100.5" y="753.5" pointer-events="all" class="st0" width="80" height="30"/>
	<g transform="translate(-0.5 -0.5)">
		<text transform="matrix(1 0 0 1 118.7953 768.9998)" class="st14"><tspan x="0" y="0" class="st15 st3 st4">Cloud </tspan><tspan x="-10.7" y="14.4" class="st15 st3 st4">Formation</tspan></text>
	</g>
	<rect x="100.5" y="513.5" pointer-events="all" class="st0" width="80" height="30"/>
	<g transform="translate(-0.5 -0.5)">
		<text transform="matrix(1 0 0 1 104.2086 528.9998)" class="st14"><tspan x="0" y="0" class="st15 st3 st4">Security and</tspan><tspan x="24.6" y="14.4" class="st15 st3 st4">IAM</tspan></text>
	</g>
	<rect x="610.8" y="65.5" pointer-events="all" class="st0" width="48" height="48"/>
	<path pointer-events="all" class="st19" d="M613,87.3c0-12,9.8-21.8,21.8-21.8c12,0,21.8,9.8,21.8,21.8s-9.8,21.8-21.8,21.8
		C622.8,109.1,613,99.3,613,87.3z M610.8,87.3c0,13.2,10.8,24,24,24c13.2,0,24-10.8,24-24c0-13.2-10.8-24-24-24
		C621.6,63.3,610.8,74.1,610.8,87.3z M627.4,99.6h-5.8l6.9-14.5l2.9,6L627.4,99.6z M629.5,82.1c-0.2-0.4-0.6-0.6-1-0.6l0,0
		c-0.4,0-0.8,0.2-1,0.6l-8.6,18.1c-0.2,0.3-0.1,0.7,0.1,1.1c0.2,0.3,0.6,0.5,0.9,0.5h8.3c0.4,0,0.8-0.2,1-0.6l4.5-9.6
		c0.1-0.3,0.1-0.6,0-0.9L629.5,82.1z M648,99.6h-6l-10.8-23.2c-0.2-0.4-0.6-0.6-1-0.6h-3.9v-4.5h7.9L645,94.4c0.2,0.4,0.6,0.6,1,0.6
		h2.1V99.6z M646.7,92.9l-10.8-23.2c-0.2-0.4-0.6-0.6-1-0.6h-9.7c-0.6,0-1.1,0.5-1.1,1.1l0,6.7c0,0.3,0.1,0.6,0.3,0.8
		c0.2,0.2,0.5,0.3,0.8,0.3h4.3l10.8,23.2c0.2,0.4,0.6,0.6,1,0.6h7.7c0.6,0,1.1-0.5,1.1-1.1V94c0-0.6-0.5-1.1-1.1-1.1H646.7z"/>
	<path pointer-events="all" class="st25" d="M301.9,279.4l7-3.5l-1.8,3.5l1.7,3.5L301.9,279.4z"/>
	<path pointer-events="all" class="st25" d="M502.6,259.1l7-3.5l-1.8,3.5l1.7,3.5L502.6,259.1z"/>
	<path pointer-events="all" class="st25" d="M412.2,598.9l1.7-3.5l-1.8-3.5l7,3.5L412.2,598.9z"/>
	<path pointer-events="stroke" class="st29" d="M721.2,151l-0.4,236.1"/>
	<path pointer-events="all" class="st25" d="M720.8,392.4l-3.5-7l3.5,1.8l3.5-1.7L720.8,392.4z"/>
	<g>
		<path pointer-events="all" class="st13" d="M620.5,554.8h80v80h-80V554.8z"/>
		<path pointer-events="all" class="st9" d="M650.2,578c-11.6,0-19.4-3.3-19.4-6.4c0-3.1,7.8-6.4,19.4-6.4c11.5,0,18.3,3.3,18.3,6.4
			C668.5,574.7,661.7,578,650.2,578z M667.8,595.7c2.2,0,4.4,0.2,6.6,0.7l0.5-2.2c-1.4-0.3-2.7-0.5-4.1-0.7v-21.6h0
			c0-0.1,0-0.2,0-0.4c0-5.1-8.5-8.7-20.6-8.7c-10.8,0-21.7,3-21.7,8.7c0,0.1,0,0.2,0,0.4h0v46.2c0,3.3,3.6,6,10.1,7.5l0.5-2.2
			c-5.1-1.2-8.3-3.2-8.3-5.3v-11c1.5,1.2,3.7,2.2,6.5,3l0.6-2.2c-4.4-1.2-7.1-3.1-7.1-4.9v-11.1c3.5,2.9,10.6,4.5,17.6,4.8l0.1-2.3
			c-11.1-0.5-17.7-3.8-17.7-6.7v-12c3.8,3,11.6,4.6,19.4,4.6c8.4,0,15-1.7,18.3-4.5v17.6c-0.2,0-0.5,0-0.7,0
			c-11.8,0-22.6,6.5-28.2,17l2,1.1C646.8,601.8,656.9,595.7,667.8,595.7z M683,599.9c-1.9-1.1-3.8-2-5.9-2.7l0.7-2.2
			c2.2,0.7,4.4,1.7,6.4,2.9L683,599.9z M671.7,624.6c-0.2-1.3-0.7-2.4-1.5-3.4l13-12.3c4.2,4,6.7,9.8,7,15.7H671.7z M664.5,620.6
			c2.4,0,4.4,1.7,4.9,3.9h-9.8C660.1,622.3,662.1,620.6,664.5,620.6z M684.8,607.3l4.2-4l-1.6-1.7l-19,17.9c-1.2-0.8-2.5-1.2-4-1.2
			c-3.6,0-6.7,2.7-7.2,6.2h-12.9c0.6-12.3,10.6-22.1,22.9-22.1c3.3,0,6.5,0.7,9.5,2l1-2.1c-3.3-1.5-6.8-2.2-10.4-2.2
			c-13.9,0-25.2,11.5-25.2,25.6v1.2h50.5v-1.2C692.5,618.8,689.7,612,684.8,607.3z"/>
	</g>
	<rect x="620.5" y="634.8" pointer-events="all" class="st0" width="80" height="30"/>
	<rect x="640.6" y="368" class="st9" width="39.7" height="10.9"/>
	<rect x="421" y="343.9" class="st9" width="80" height="10.9"/>
	<rect x="424.4" y="319.1" class="st9" width="81.7" height="13"/>
	<rect x="608.6" y="403.1" class="st9" width="181.6" height="10.2"/>
	<g transform="translate(-0.5 -0.5)">
		<text transform="matrix(1 0 0 1 621.7528 650.3396)" class="st14"><tspan x="0" y="0" class="st15 st3 st4">Redis Memory</tspan><tspan x="23.4" y="14.4" class="st15 st3 st4">Cache</tspan></text>
	</g>
	<g>
		<path pointer-events="all" class="st5" d="M420.5,675.5h80v80h-80V675.5z"/>
		<path pointer-events="all" class="st9" d="M477.4,723.9c0-4.4-3.6-8-8.1-8s-8.1,3.6-8.1,8c0,4.4,3.6,8,8.1,8
			S477.4,728.3,477.4,723.9 M479.6,723.9c0,5.7-4.7,10.3-10.4,10.3s-10.4-4.6-10.4-10.3c0-5.7,4.7-10.3,10.4-10.3
			S479.6,718.2,479.6,723.9 M489.2,739.4l-8-7.1c-0.6,0.9-1.4,1.7-2.2,2.5l7.9,7.1c0.7,0.6,1.7,0.5,2.3-0.1
			C490,741.1,489.9,740,489.2,739.4 M469.3,736.2c6.9,0,12.4-5.5,12.4-12.4c0-6.8-5.6-12.3-12.4-12.3c-6.9,0-12.4,5.5-12.4,12.3
			C456.8,730.7,462.4,736.2,469.3,736.2 M491,743.3c-0.8,0.8-1.8,1.3-2.9,1.3c-0.9,0-1.9-0.3-2.6-1l-8.3-7.4c-2.3,1.5-5,2.3-8,2.3
			c-8.1,0-14.7-6.5-14.7-14.6c0-8.1,6.6-14.6,14.7-14.6c8.1,0,14.7,6.6,14.7,14.6c0,2.3-0.6,4.5-1.5,6.4l8.3,7.4
			C492.4,739.2,492.5,741.7,491,743.3 M439,704.1c0,0.6,0,1.2,0.1,1.8c0,0.3-0.1,0.6-0.3,0.9c-0.2,0.2-0.4,0.3-0.7,0.4
			c-2.8,0.7-7.4,2.9-7.4,9.4c0,4.9,2.7,7.6,5,9.1c0.8,0.5,1.7,0.8,2.7,0.8l13.8,0v2.3l-13.8,0c-1.4,0-2.8-0.4-3.9-1.1
			c-2.3-1.4-6.1-4.7-6.1-11c0-7.6,5.2-10.4,8.3-11.4c0-0.3,0-0.7,0-1c0-6.2,4.2-12.6,9.8-14.9c6.6-2.7,13.5-1.4,18.6,3.6
			c1.6,1.5,2.9,3.4,3.9,5.6c1.3-1.1,3-1.7,4.7-1.7c3.4,0,7.2,2.6,7.9,8.2c3.2,0.7,9.9,3.3,9.9,11.8c0,3.4-1.1,6.2-3.2,8.3l-1.6-1.6
			c1.7-1.7,2.5-4,2.5-6.7c0-7.4-6.2-9.3-8.9-9.7c-0.3,0-0.6-0.2-0.8-0.5c-0.2-0.2-0.2-0.5-0.2-0.8c-0.4-4.6-3.1-6.7-5.7-6.7
			c-1.6,0-3.2,0.8-4.2,2.2c-0.2,0.3-0.7,0.5-1.1,0.5c-0.4-0.1-0.8-0.4-0.9-0.7c-0.9-2.6-2.3-4.7-4-6.4c-4.4-4.3-10.4-5.5-16.1-3.1
			C442.7,693.2,439,698.9,439,704.1"/>
	</g>
	<rect x="421.5" y="755.5" pointer-events="all" class="st0" width="80" height="30"/>
	<g transform="translate(-0.5 -0.5)">
		<text transform="matrix(1 0 0 1 425.043 768.9993)" class="st14"><tspan x="0" y="0" class="st15 st3 st4">Cloud Watch</tspan><tspan x="22.8" y="14.4" class="st15 st3 st4">Logs</tspan></text>
	</g>
	<g>
		<path pointer-events="all" class="st5" d="M102.5,554.8h80v80h-80V554.8z"/>
		<path pointer-events="all" class="st9" d="M115.2,592.5c1.3,0,2.3,1,2.3,2.3s-1,2.3-2.3,2.3c-1.3,0-2.3-1-2.3-2.3
			S113.9,592.5,115.2,592.5z M143.1,622.8c-13.6,0-25.3-9.9-27.7-23.3c2.1-0.1,3.8-1.5,4.3-3.5h7.2v-2.3h-7.2
			c-0.5-1.9-2.2-3.4-4.3-3.5c2.4-13.2,14.3-23.3,27.7-23.3c5,0,10.3,1.9,15.6,5.6l1.3-1.9c-5.8-4-11.4-6-17-6
			c-14.8,0-28,11.5-30.2,26.2c-1.4,0.8-2.4,2.3-2.4,4s1,3.2,2.4,4c2.2,15,15.1,26.2,30.2,26.2c6.3,0,12.7-2.1,18.1-6l-1.4-1.9
			C154.9,620.8,148.9,622.8,143.1,622.8z M130.4,590.7c2.2,0.5,4.9,0.7,6.9,0.7c1.9,0,4.5-0.1,6.6-0.6l-5.3,10.5
			c-0.1,0.2-0.1,0.3-0.1,0.5v5.2c-0.9,0.6-2.5,1.6-3.5,1.8v-7c0-0.1,0-0.3-0.1-0.4L130.4,590.7z M137.3,586.7c4.7,0,7.2,0.7,8,1.2
			c-0.8,0.5-3.3,1.2-8,1.2c-4.7,0-7.2-0.7-8-1.2C130.1,587.4,132.6,586.7,137.3,586.7z M133.8,611.1h1.2c0.1,0,0.1,0,0.1,0
			c1.4-0.2,3.2-1.3,4.8-2.3l0.3-0.2c0.3-0.2,0.5-0.6,0.5-1v-5.5l6.5-12.9c0.3-0.4,0.5-0.8,0.5-1.3c0-3-6.6-3.5-10.5-3.5
			c-3.9,0-10.5,0.4-10.5,3.5c0,0.4,0.1,0.8,0.4,1.1l5.4,13.1v7.9C132.6,610.6,133.1,611.1,133.8,611.1z M167.5,610
			c1.3,0,2.3,1,2.3,2.3c0,1.3-1.1,2.3-2.3,2.3c-1.3,0-2.3-1-2.3-2.3C165.2,611,166.2,610,167.5,610z M167.5,575.1
			c1.3,0,2.3,1,2.3,2.3c0,1.3-1.1,2.3-2.3,2.3c-1.3,0-2.3-1-2.3-2.3C165.2,576.1,166.2,575.1,167.5,575.1z M169.9,592.5
			c1.3,0,2.3,1,2.3,2.3s-1,2.3-2.3,2.3c-1.3,0-2.3-1-2.3-2.3S168.6,592.5,169.9,592.5z M158.2,596h7.1c0.5,2,2.3,3.5,4.5,3.5
			c2.6,0,4.6-2.1,4.6-4.7s-2.1-4.7-4.6-4.7c-2.2,0-4,1.5-4.5,3.5h-7.1v-15.1h4.8c0.5,2,2.3,3.5,4.5,3.5c2.6,0,4.6-2.1,4.6-4.7
			c0-2.6-2.1-4.7-4.6-4.7c-2.2,0-4,1.5-4.5,3.5h-6c-0.7,0-1.2,0.5-1.2,1.2v16.3h-8.1v2.3h8.1v16.3c0,0.6,0.5,1.2,1.2,1.2h6
			c0.5,2,2.3,3.5,4.5,3.5c2.6,0,4.6-2.1,4.6-4.7c0-2.6-2.1-4.7-4.6-4.7c-2.2,0-4,1.5-4.5,3.5h-4.8V596z"/>
	</g>
	<polyline class="st30" points="200.5,151 200.5,181.5 260.5,181.5 260.5,228.9 	"/>
	<path pointer-events="all" class="st25" d="M392.1,390.6l-3.4-7l3.5,1.8l3.5-1.7L392.1,390.6z"/>
	<path pointer-events="all" class="st25" d="M332.8,392.2l-3.4-7l3.5,1.8l3.5-1.7L332.8,392.2z"/>
	<polyline class="st30" points="298.7,313.9 298.7,342.1 392.2,342.1 392.2,386.1 	"/>
	<line class="st30" x1="461" y1="152.3" x2="461" y2="227.1"/>
	<rect x="441.1" y="178.8" class="st9" width="39.7" height="10.9"/>
	<rect x="630.5" y="318.7" class="st9" width="59.9" height="12"/>
	<g transform="translate(-0.5 -0.5)">
		<text transform="matrix(1 0 0 1 442.9932 188.2541)" class="st15 st3 st20">Upload</text>
	</g>
	<polyline class="st29" points="662.2,151 662.2,167.6 328.2,167.6 328.2,279.4 305.4,279.4 	"/>
	<g transform="translate(-0.5 -0.5)">
		<text transform="matrix(1 0 0 1 645.5173 376.5001)" class="st15 st3 st20">Ingest</text>
	</g>
	<g transform="translate(-0.5 -0.5)">
		<text transform="matrix(1 0 0 1 633.8281 329.6666)" class="st15 st3 st4">RDF Data</text>
	</g>
	<g transform="translate(-0.5 -0.5)">
		<text transform="matrix(1 0 0 1 612.5 412.8334)" class="st12 st3 st4">RDF Ingestion on EC2 instance</text>
	</g>
	<polyline class="st29" points="675,152.3 675,184.2 540.5,184.2 540.5,259.1 507.8,259.1 	"/>
	<g transform="translate(-0.5 -0.5)">
		<text transform="matrix(1 0 0 1 422.718 353.5001)" class="st15 st3 st20">RML Mappings</text>
	</g>
	<g transform="translate(-0.5 -0.5)">
		<text transform="matrix(1 0 0 1 425.8105 329.6666)" class="st15 st3 st4">Configuration</text>
	</g>
	<polyline class="st29" points="687.6,152.3 687.6,200.4 555.3,200.4 555.3,364 332.9,364 332.9,386.9 	"/>
	<polyline class="st29" points="699.4,152.3 699.4,212 572.3,212 572.3,325.6 510.3,325.6 510.3,386.9 	"/>
	<polyline class="st29" points="709.3,151 709.3,217.3 660.5,217.3 660.5,227.2 	"/>
	<polyline class="st30" points="533.1,390.6 533.1,368 626.2,368 626.2,320.4 	"/>
	<line class="st30" x1="459.9" y1="554.8" x2="459.9" y2="520.3"/>
	<path pointer-events="all" class="st25" d="M264,521.5l-3.5-1.8l-3.5,1.8l3.5-7L264,521.5z"/>
	<line class="st30" x1="260.5" y1="554.3" x2="260.5" y2="519.8"/>
	<rect x="408.9" y="532.1" class="st9" width="101.9" height="10.9"/>
	<rect x="209.5" y="527.5" class="st9" width="101.9" height="21.3"/>
	<g transform="translate(-0.5 -0.5)">
		<text transform="matrix(1 0 0 1 409.3654 540.3942)" class="st15 st3 st20">parallel conversion</text>
	</g>
	<g transform="translate(-0.5 -0.5)">
		<text transform="matrix(1 0 0 1 218.3232 535.2892)" class="st14"><tspan x="0" y="0" class="st15 st3 st4">Step Functions</tspan><tspan x="16.2" y="14.4" class="st15 st3 st4">workflow</tspan></text>
	</g>
	<polyline class="st30" points="300.5,473.5 361.4,473.5 361.4,595.4 416,595.4 	"/>
	<rect x="342.8" y="534.5" class="st9" width="36.2" height="22.1"/>
	<g transform="translate(-0.5 -0.5)">
		<text transform="matrix(1 0 0 1 342.9385 542.9698)" class="st14"><tspan x="0" y="0" class="st15 st3 st20">source </tspan><tspan x="11.4" y="13.2" class="st15 st3 st20">list</tspan></text>
	</g>
	<path pointer-events="all" class="st25" d="M612.7,599.7l1.7-3.5l-1.8-3.5l7,3.5L612.7,599.7z"/>
	<polyline class="st30" points="501,474.3 561.9,474.3 561.9,596.2 616.5,596.2 	"/>
	<rect x="534.9" y="525.4" class="st9" width="52.5" height="38"/>
	<g transform="translate(-0.5 -0.5)">
		<text transform="matrix(1 0 0 1 535.6584 535.7619)" class="st14"><tspan x="0" y="0" class="st15 st3 st20">cache for </tspan><tspan x="2.9" y="13.2" class="st15 st3 st20">deletion </tspan><tspan x="1.4" y="26.4" class="st15 st3 st20">detection</tspan></text>
	</g>
	<rect x="570.8" y="176.7" class="st9" width="65.3" height="12.5"/>
	<rect x="591.7" y="195.3" class="st9" width="65.3" height="12.5"/>
	<g transform="translate(-0.5 -0.5)">
		<text transform="matrix(1 0 0 1 571.2692 186.9723)" class="st15 st3 st20">Provisioning</text>
	</g>
	<g transform="translate(-0.5 -0.5)">
		<text transform="matrix(1 0 0 1 591.9217 203.5945)" class="st15 st3 st20">Provisioning</text>
	</g>
</g>
<path class="st0" d="z"/>
</svg>
